If you must download and send. Keep active torrents for other! Thanks
Se si scarica devi inviare. Mantenere torrents attivi per altri! Grazie
Daca descarci trebuie sa trimiti. Pastreaza torrentul activ si pentru alti! Mersi
---------------------------------------------------------------------------------


Walt Disney.Snow White And The Seven Dwarfs.1937 [Eng-Ro] ACC 5.1 H264-MarGelaTu.mp4 - http://www.imdb.com/title/tt0029583/
---------------------------------------------------------------------------------------------------------------------------

      Format : MPEG-4
      Format profile : Base Media / Version 2
      Codec ID : mp42
      File size : 1.28 GiB
      Duration : 1h 19mn
      Overall bit rate : 2 296 Kbps
         
   Video #1
      ID : 1
      Format : AVC
      Format/Info : Advanced Video Codec
      Format profile : High@L3.1
      Format settings, CABAC : Yes
      Format settings, ReFrames : 6 frames
      Codec ID : avc1
      Codec ID/Info : Advanced Video Coding
      Duration : 1h 19mn
      Bit rate mode : Variable
      Bit rate : 1 905 Kbps
      Width : 720 pixels
      Height : 570 pixels
      Display aspect ratio : 4:3
      Original display aspect ratio : 4:3
      Frame rate mode : Constant
      Frame rate : 25.000 fps
      Resolution : 24 bits
      Colorimetry : 4:2:0
      Scan type : Progressive
      Bits/(Pixel*Frame) : 0.186
      Stream size : 1.06 GiB (83%)
      Writing library : x264 core 79
      Encoding settings : cabac=1 / ref=6 / deblock=1:-2:-2 / analyse=0x3:0x133 / me=hex / subme=9 / psy=1 / psy_rd=0.2:0.0 / mixed_ref=1 / me_range=16 / chroma_me=1 / trellis=2 / 8x8dct=1 / cqm=0 / deadzone=21,11 / chroma_qp_offset=-1 / threads=6 / nr=0 / decimate=1 / mbaff=0 / constrained_intra=0 / bframes=4 / b_pyramid=0 / b_adapt=2 / b_bias=0 / direct=3 / wpredb=1 / wpredp=2 / keyint=250 / keyint_min=25 / scenecut=40 / rc_lookahead=50 / rc=crf / mbtree=1 / crf=18.0 / qcomp=0.60 / qpmin=10 / qpmax=51 / qpstep=4 / ip_ratio=1.40 / aq=1:1.00
      Encoded date : UTC 2010-09-08 21:12:03
      Tagged date : UTC 2010-09-08 23:27:05
      colour_primaries : BT.601-6 525, BT.1358 525, BT.1700 NTSC, SMPTE 170M
      transfer_characteristics : BT.709-5, BT.1361
      matrix_coefficients : BT.601-6 525, BT.1358 525, BT.1700 NTSC, SMPTE 170M
   Audio #2
      ID : 2
      Format : AAC
      Format/Info : Advanced Audio Codec
      Format version : Version 4
      Format profile : LC
      Format settings, SBR : No
      Codec ID : 40
      Duration : 1h 19mn
      Bit rate mode : Variable
      Bit rate : 192 Kbps
      Maximum bit rate : 263 Kbps
      Channel(s) : 6 channels
      Channel positions : Front: L C R, Rear: L R, LFE
      Sampling rate : 48.0 KHz
      Resolution : 16 bits
      Stream size : 110 MiB (8%)
      Language : English
      
   Audio #3
      ID : 3
      Format : AAC
      Format/Info : Advanced Audio Codec
      Format version : Version 4
      Format profile : LC
      Format settings, SBR : No
      Codec ID : 40
      Duration : 1h 19mn
      Bit rate mode : Variable
      Bit rate : 192 Kbps
      Maximum bit rate : 264 Kbps
      Channel(s) : 6 channels
      Channel positions : Front: L C R, Rear: L R, LFE
      Sampling rate : 48.0 KHz
      Resolution : 16 bits
      Stream size : 110 MiB (8%)
      Language : Romanian
